<svg width="24" height="24" viewBox="0 0 24 24" fill="none" xmlns="http://www.w3.org/2000/svg">
<path d="M4.20004 15.2625C5.58754 14.55 6.18754 14.325 3.93754 13.65C4.35004 13.6125 6.75004 14.4375 7.50004 13.5375C8.13754 13.0875 5.06254 12.525 4.87504 12.075C5.47504 12.45 8.10004 13.6125 8.58754 12.5625C8.51254 12.1875 8.13754 11.475 6.82504 11.1C7.20004 11.25 7.98754 11.175 8.28754 10.875C8.17504 10.5375 6.71254 9.63747 6.56254 8.47497C7.05004 9.14997 7.65004 10.3125 8.40004 10.5375C8.40004 10.5375 8.62504 9.97497 9.45004 9.74997C8.70004 9.74997 7.95004 9.29997 7.83754 8.92497C8.36254 9.78747 10.2375 9.33747 11.025 10.05C11.025 10.05 10.875 9.56247 11.4 8.92497C11.4375 8.77497 11.1 8.51247 11.2875 8.43747C11.3625 8.51247 11.3625 8.77497 11.5875 8.73747C12.075 8.54997 12.525 7.91247 12.225 7.31247C12.45 7.42497 12.4875 7.94997 12.525 8.24997C12.825 8.24997 13.35 8.21247 13.9125 8.73747C14.025 8.66247 13.9875 8.47497 14.1 8.39997C14.2125 8.77497 14.2125 9.56247 14.7375 9.52497C15.15 9.52497 15.675 8.62497 15.75 8.24997C15.7125 9.11247 16.2 8.99997 16.35 9.03747C16.725 8.99997 17.1375 7.76247 17.325 7.76247C17.25 7.91247 17.25 8.39997 17.2875 8.66247C17.7 8.73747 18.75 8.24997 18.975 8.02497C18.9375 8.21247 18.8625 8.28747 18.9 8.51247C19.275 8.58747 21.4125 7.57497 21.9 6.52497C21.3375 6.26247 20.8875 5.96247 20.4375 5.81247C20.175 6.03747 20.175 6.97497 19.8375 6.89997C19.9875 6.67497 20.3625 5.88747 20.0625 5.62497C18.6375 4.64997 19.35 6.37497 19.2 6.52497C19.2 6.22497 18.5625 4.46247 17.9625 4.61247C17.85 4.76247 17.625 3.74997 17.2125 5.96247C17.25 5.58747 17.7 4.12497 15.525 3.52497C15.4125 4.08747 16.1625 5.77497 15.975 6.14997C15.9 5.43747 15.3375 3.71247 14.9625 3.26247C14.1375 2.92497 12.675 2.32497 12.0375 2.54997C11.2875 2.73747 13.1625 4.42497 12.6375 5.09997C12.75 4.12497 11.5875 3.07497 10.8 3.07497C9.18754 3.89997 10.5 5.43747 10.2375 6.18747C10.0875 5.28747 9.63754 5.09997 9.71254 4.04997C9.30004 4.34997 9.26254 4.87497 8.81254 5.28747C8.58754 5.36247 8.47504 5.24997 8.25004 5.28747C7.87504 5.69997 8.58754 6.56247 8.43754 6.89997C8.17504 6.33747 8.17504 5.51247 7.53754 5.43747C7.01254 5.09997 5.92504 5.36247 5.10004 5.92497C4.16254 6.18747 3.26254 8.73747 3.30004 9.07497C3.37504 9.52497 4.16254 9.59997 4.20004 10.05C3.86254 9.86247 3.75004 9.48747 3.22504 9.52497C3.03754 9.93747 2.92504 10.2375 2.88754 10.8375C3.45004 11.2125 4.16254 11.55 4.35004 12.1125C3.82504 11.925 3.52504 11.1375 2.85004 11.3625C1.98754 13.8 3.03754 13.35 3.15004 13.6875C2.85004 13.8 2.55004 13.5 2.43754 13.6875C1.76254 14.925 2.55004 14.925 2.62504 15.15H2.13754C1.87504 15.375 1.83754 16.1625 1.91254 16.5375C2.47504 16.275 3.67504 16.0125 3.37504 15.3375C3.67504 15.4125 4.01254 15.4125 4.20004 15.2625Z" fill="#C94747"/>
<path d="M19.0124 8.8875C18.3749 9.0375 16.4249 9.1875 15.9374 9.75C16.4999 10.65 18.7124 10.8 19.2749 11.7C18.4124 11.175 16.6499 10.425 15.5249 10.125C14.1749 9.825 14.5874 10.575 14.1374 11.6625C14.3249 12.075 14.9624 13.2 14.9999 13.575C14.6624 13.2 14.3624 11.475 13.7999 12.4125C12.8999 13.875 14.2874 14.175 14.8874 15.525C14.5124 15 13.7624 13.9875 13.2749 13.3875L12.9374 13.95C12.3749 13.8 12.1124 13.8375 12.1124 13.8375C12.4499 14.6625 13.4999 16.35 13.7999 16.875C12.7874 15.8625 12.3374 14.8875 11.8124 13.8C11.3624 13.8 10.9499 13.6125 10.4999 13.5375C10.4624 14.475 10.8749 15.075 10.8749 15.75C10.5374 14.7375 10.3124 12.5625 8.32491 13.275C7.76241 14.4375 8.58741 16.6875 8.62491 17.6625C8.24991 16.575 8.28741 15.0375 7.79991 14.1C7.16241 14.0625 6.14991 14.025 6.33741 14.4375C5.06241 14.775 1.72491 16.7625 2.28741 17.2875C3.29991 18.2625 5.51241 19.5375 6.93741 19.8C7.01241 19.425 7.16241 18.7875 7.31241 18.5625C7.46241 19.1625 7.64991 19.9125 8.24991 20.0625C8.39991 19.875 8.17491 19.3875 8.21241 19.0875C8.73741 19.725 10.1624 20.475 11.1749 19.9875C11.2874 19.6125 10.8749 19.0875 11.0999 18.825C11.2499 19.8375 13.5749 19.9125 13.7624 19.0125C13.8374 18.6 13.4249 18.3375 13.4249 18.075C13.7624 18.45 13.9124 18.9375 14.4749 18.9C15.7124 18.825 14.8874 17.1 14.6624 16.425C14.9624 17.025 15.3374 17.925 15.7874 18.375C16.1249 18.3 16.2749 17.8125 16.0874 17.4C17.1749 18.15 17.2874 17.55 16.8749 16.05C16.9874 16.35 17.3999 17.0625 17.6624 17.175C18.6374 16.7625 17.2499 15.1125 17.0624 14.8125C17.4749 15.15 17.9624 16.2375 18.5999 16.3875C18.7124 16.3125 18.7124 15.7125 18.7874 15.6C18.5624 14.1375 17.0999 13.2 16.5374 12.2625C17.4374 13.0875 18.3374 14.8125 19.4999 15.4125C19.8749 14.925 19.1624 13.6125 18.9374 13.2375C19.2749 13.3875 19.8374 14.25 20.2499 14.2875C20.6624 14.0625 20.0624 12.975 19.7999 12.6C19.9874 12.675 20.5124 13.2375 20.8124 13.1625C20.9249 12.6375 20.2499 12 20.0999 11.5875C20.2874 11.625 20.8874 12.225 21.1499 12.225C21.4124 11.1375 21.8624 9.8625 21.7874 7.3125C21.4124 7.35 19.4999 8.775 19.0124 8.8875Z" fill="#ED4C5C"/>
</svg>
