<svg width="40" height="40" viewBox="0 0 40 40" fill="none" xmlns="http://www.w3.org/2000/svg">
<path d="M30.0518 27.695L37.1902 34.8316L34.8318 37.19L27.6952 30.0516C25.0397 32.1803 21.7368 33.3382 18.3335 33.3333C10.0535 33.3333 3.3335 26.6133 3.3335 18.3333C3.3335 10.0533 10.0535 3.33331 18.3335 3.33331C26.6135 3.33331 33.3335 10.0533 33.3335 18.3333C33.3383 21.7366 32.1805 25.0395 30.0518 27.695ZM26.7085 26.4583C28.8232 24.2828 30.0044 21.3673 30.0002 18.3333C30.0002 11.8883 24.7785 6.66665 18.3335 6.66665C11.8885 6.66665 6.66683 11.8883 6.66683 18.3333C6.66683 24.7783 11.8885 30 18.3335 30C21.3674 30.0042 24.283 28.823 26.4585 26.7083L26.7085 26.4583Z" fill="black"/>
</svg>
